<?xml version="1.0" encoding="iso-8859-1"?>
<!-- Generator: Adobe Illustrator 19.0.0, SVG Export Plug-In . SVG Version: 6.00 Build 0)  -->
<svg version="1.1" id="Capa_1" xmlns="http://www.w3.org/2000/svg" xmlns:xlink="http://www.w3.org/1999/xlink" x="0px" y="0px"
	 viewBox="0 0 511.999 511.999" style="enable-background:new 0 0 511.999 511.999;" xml:space="preserve">
<path style="fill:#A16B4E;" d="M380.693,392.321c0,57.893-55.827,88.845-124.694,88.845s-124.693-30.952-124.693-88.845
	S187.133,287.497,256,287.497S380.693,334.428,380.693,392.321z"/>
<g style="opacity:0.1;">
	<path d="M256,430.018c-4.142,0-7.5-3.357-7.5-7.5v-11.112c0-4.143,3.358-7.5,7.5-7.5c4.142,0,7.5,3.357,7.5,7.5v11.112
		C263.5,426.66,260.142,430.018,256,430.018z"/>
	<path d="M221.795,413.72c-4.142,0-7.5-3.357-7.5-7.5v-11.854c0-4.143,3.358-7.5,7.5-7.5c4.142,0,7.5,3.357,7.5,7.5v11.854
		C229.296,410.362,225.937,413.72,221.795,413.72z"/>
	<path d="M290.205,413.72c-4.142,0-7.5-3.357-7.5-7.5v-11.854c0-4.143,3.358-7.5,7.5-7.5c4.142,0,7.5,3.357,7.5,7.5v11.854
		C297.705,410.362,294.347,413.72,290.205,413.72z"/>
</g>
<g>
	<path style="fill:#7D4E3E;" d="M92.696,349.795c-9.268,25.465-12.388,98.266,13.077,107.535
		c25.465,9.268,69.871-48.506,79.139-73.971c9.268-25.465-3.861-53.622-29.327-62.89C130.121,311.2,101.965,324.33,92.696,349.795z"
		/>
	<path style="fill:#7D4E3E;" d="M419.303,349.795c9.268,25.465,12.388,98.266-13.077,107.535
		c-25.464,9.268-69.871-48.506-79.139-73.971c-9.268-25.465,3.861-53.622,29.327-62.89
		C381.878,311.2,410.034,324.33,419.303,349.795z"/>
</g>
<path style="opacity:0.15;enable-background:new    ;" d="M356.412,320.468c-2.264,0.824-4.425,1.804-6.487,2.911
	c-22.857-21.989-56.46-35.883-93.926-35.883s-71.069,13.894-93.926,35.883c-2.062-1.107-4.223-2.087-6.487-2.911
	c-14.806-5.389-30.516-3.194-42.9,4.583c31.581,37.999,83.989,62.859,143.314,62.859s111.733-24.861,143.314-62.859
	C386.929,317.274,371.219,315.079,356.412,320.468z"/>
<g>
	<ellipse style="fill:#A16B4E;" cx="256.003" cy="193.251" rx="201.541" ry="169.429"/>
	<ellipse style="fill:#A16B4E;" cx="256.003" cy="189.72" rx="201.541" ry="169.429"/>
</g>
<path style="opacity:0.1;enable-background:new    ;" d="M390.525,67.101c29.968,29.574,48.064,67.909,48.064,109.803
	c0,93.573-90.234,169.429-201.544,169.429c-51.701,0-98.848-16.373-134.525-43.277c36.967,36.482,92.004,59.627,153.479,59.627
	c111.31,0,201.544-75.856,201.544-169.429C457.544,143.143,431.658,98.121,390.525,67.101z"/>
<path style="fill:#FC8063;" d="M365.63,156.199l92.098-117.13c8.392-10.673-1.167-25.995-14.443-23.15l-35.075,7.516
	c-13.056,2.797-26.593,2.406-39.466-1.141l-43.751-12.058c-20.193-5.565-41.782-2.644-59.77,8.085l0,0
	c-5.682,3.389-12.766,3.389-18.448,0l0,0c-17.988-10.731-39.578-13.651-59.77-8.085l-43.751,12.058
	c-12.873,3.547-26.41,3.939-39.466,1.141l-35.074-7.516c-13.276-2.845-22.834,12.477-14.443,23.15l92.098,117.13H365.63z"/>
<g>
	<circle style="fill:#FAD97E;" cx="180.669" cy="156.199" r="75.334"/>
	<circle style="fill:#FAD97E;" cx="331.327" cy="156.199" r="75.334"/>
</g>
<path style="opacity:0.1;enable-background:new    ;" d="M245.774,174.54l-21.314,41.092c-4.763,9.182-3.029,20.392,4.285,27.706
	l18.293,18.293c4.949,4.949,12.973,4.949,17.922,0l18.293-18.293c7.314-7.314,9.048-18.524,4.285-27.706l-21.314-41.092
	C261.926,166.253,250.073,166.253,245.774,174.54z"/>
<g>
	<path style="fill:#FC8063;" d="M245.774,160.402l-21.314,41.092c-4.763,9.182-3.029,20.392,4.285,27.706l18.293,18.293
		c4.949,4.949,12.973,4.949,17.922,0l18.293-18.293c7.314-7.314,9.048-18.524,4.285-27.706l-21.314-41.092
		C261.926,152.114,250.073,152.114,245.774,160.402z"/>
	<path style="fill:#FC8063;" d="M210.629,504.5c-10.739,0-19.445-8.705-19.445-19.445v-26.728c0-10.739,8.705-19.445,19.445-19.445
		s19.445,8.705,19.445,19.445v26.728C230.074,495.795,221.367,504.5,210.629,504.5z"/>
	<path style="fill:#FC8063;" d="M301.37,504.5c-10.739,0-19.445-8.705-19.445-19.445v-26.728c0-10.739,8.705-19.445,19.445-19.445
		s19.445,8.705,19.445,19.445v26.728C320.815,495.795,312.11,504.5,301.37,504.5z"/>
</g>
<path d="M308.337,171.179c4.142,0,7.5-3.357,7.5-7.5c0-8.541,6.949-15.491,15.492-15.491s15.492,6.949,15.492,15.491
	c0,4.143,3.358,7.5,7.5,7.5c4.142,0,7.5-3.357,7.5-7.5c0-16.814-13.679-30.492-30.493-30.492s-30.493,13.679-30.493,30.492
	C300.836,167.822,304.195,171.179,308.337,171.179z M465.043,193.254c0-37.107-13.299-72.371-38.514-102.372L437.601,76.8
	c2.561-3.256,1.997-7.972-1.26-10.532c-3.254-2.561-7.971-1.996-10.532,1.26l-29.452,37.456
	c-15.181-19.235-38.678-31.618-65.028-31.618c-21.738,0-42.274,8.36-57.827,23.542c-7.424,7.246-13.305,15.675-17.503,24.857
	c-4.198-9.182-10.079-17.611-17.503-24.857c-15.552-15.182-36.089-23.542-57.827-23.542c-26.349,0-49.847,12.383-65.027,31.618
	L60.167,34.432c-2.82-3.587-1.047-7.059-0.437-8.038c0.611-0.977,2.952-4.093,7.412-3.142l35.074,7.517
	c14.175,3.036,29.054,2.606,43.03-1.244l43.751-12.058c18.129-4.997,37.787-2.337,53.936,7.296c8.059,4.806,18.073,4.807,26.133,0
	c16.149-9.633,35.809-12.291,53.935-7.296l43.751,12.058c13.977,3.851,28.857,4.28,43.03,1.244l35.074-7.516
	c4.459-0.962,6.801,2.163,7.412,3.142c0.61,0.979,2.383,4.451-0.438,8.038l-10.764,13.69c-2.56,3.256-1.996,7.972,1.26,10.532
	c3.257,2.562,7.971,1.997,10.533-1.26l10.764-13.69c5.8-7.376,6.339-17.288,1.372-25.249c-4.967-7.962-14.107-11.834-23.282-9.872
	L406.639,16.1c-11.826,2.537-24.24,2.177-35.901-1.037l-43.75-12.059c-22.051-6.077-45.963-2.843-65.606,8.874
	c-3.319,1.98-7.443,1.98-10.764,0c-19.644-11.717-43.556-14.953-65.606-8.874l-43.75,12.058
	c-11.662,3.214-24.076,3.571-35.902,1.037L70.284,8.583c-9.174-1.96-18.314,1.909-23.281,9.872
	c-4.966,7.961-4.428,17.872,1.372,25.249L85.47,90.881c-25.215,30.003-38.515,65.265-38.515,102.371
	c0,47.484,21.892,92.049,61.644,125.494c-10.51,6.618-18.608,16.55-22.951,28.483c-4.476,12.299-7.307,33.142-7.212,53.099
	c0.02,4.131,3.374,7.465,7.499,7.465h0.037c4.142-0.02,7.484-3.393,7.464-7.535c-0.085-18.047,2.45-37.296,6.308-47.899
	c3.843-10.558,11.693-18.976,21.818-23.586c17.479,12.458,37.011,22.279,57.909,29.224c1.621,7.592,1.084,15.401-1.607,22.796
	c-3.963,10.89-16.2,30.684-31.919,47.444c-15.408,16.433-29.818,24.884-37.607,22.043c-4.976-1.811-9.175-8.953-11.824-20.112
	c-0.957-4.028-4.996-6.522-9.03-5.565c-4.03,0.956-6.522,4.999-5.565,9.029c3.964,16.701,11.127,27.044,21.289,30.744
	c2.754,1.002,5.573,1.459,8.43,1.459c11.496,0,23.552-7.403,33.99-16.445c9.781,10.695,22.533,19.398,38.055,25.96v9.704
	c0,14.858,12.088,26.944,26.945,26.944c13.9,0,25.373-10.58,26.795-24.108c6.091,0.503,12.305,0.775,18.576,0.775
	s12.484-0.272,18.576-0.775c1.422,13.529,12.896,24.108,26.795,24.108c14.858,0,26.945-12.088,26.945-26.944v-9.704
	c15.522-6.563,28.274-15.266,38.054-25.959c10.438,9.042,22.493,16.445,33.99,16.444c2.855,0,5.678-0.457,8.431-1.459
	c18.124-6.596,23.32-33.186,24.487-54.328c1.236-22.385-1.612-48.219-6.927-62.82c-4.343-11.933-12.442-21.864-22.952-28.482
	C443.152,285.302,465.043,240.738,465.043,193.254z M283.98,107.644c12.734-12.431,29.55-19.275,47.349-19.275
	c37.401,0,67.83,30.429,67.83,67.83s-30.428,67.83-67.83,67.83c-11.926,0-23.486-3.089-33.719-8.968
	c0.483-5.731-0.614-11.623-3.413-17.02l-21.314-41.092c-1.987-3.831-5.145-6.776-8.908-8.51
	C265.732,132.963,272.704,118.652,283.98,107.644z M256,161.686c0.734,0,2.552,0.212,3.567,2.169l21.314,41.092
	c1.871,3.608,2.281,7.641,1.355,11.376c-0.104,0.304-0.193,0.611-0.256,0.922c-0.765,2.449-2.116,4.738-4.03,6.651l-18.293,18.294
	c-0.977,0.977-2.275,1.515-3.657,1.515c-1.381,0-2.68-0.538-3.657-1.516l-18.293-18.293c-1.912-1.912-3.264-4.2-4.028-6.647
	c-0.063-0.313-0.153-0.622-0.257-0.928c-0.926-3.733-0.516-7.766,1.355-11.374l21.314-41.092
	C253.448,161.898,255.265,161.686,256,161.686z M180.67,88.369c17.799,0,34.615,6.845,47.348,19.275
	c11.277,11.008,18.249,25.319,20.005,40.793c-3.762,1.734-6.92,4.679-8.907,8.51l-21.314,41.092
	c-2.799,5.396-3.897,11.289-3.413,17.02c-10.233,5.879-21.793,8.968-33.719,8.968c-37.401,0-67.83-30.429-67.83-67.83
	S143.269,88.369,180.67,88.369z M222.573,485.056c0,6.586-5.358,11.944-11.945,11.944s-11.945-5.357-11.945-11.944v-26.729
	c0-6.586,5.358-11.945,11.945-11.945s11.945,5.358,11.945,11.945V485.056z M313.315,485.056c0,6.586-5.358,11.944-11.945,11.944
	s-11.945-5.357-11.945-11.944v-26.729c0-6.586,5.358-11.945,11.945-11.945s11.945,5.358,11.945,11.945V485.056z M328.316,458.887
	v-0.56c0-14.858-12.088-26.945-26.945-26.945s-26.945,12.088-26.945,26.945v14.536c-6.023,0.529-12.193,0.804-18.426,0.804
	s-12.403-0.274-18.426-0.804v-14.536c0-14.858-12.088-26.945-26.945-26.945c-14.858,0-26.945,12.088-26.945,26.945v0.56
	c-11.007-5.372-20.128-12.035-27.253-19.904c0.152-0.161,0.307-0.322,0.458-0.483c15.336-16.353,29.759-37.973,35.073-52.576
	c2.753-7.565,3.844-15.449,3.284-23.287c19.45,4.971,39.871,7.546,60.754,7.546s41.305-2.576,60.754-7.546
	c-0.56,7.839,0.531,15.723,3.284,23.289c5.315,14.603,19.738,36.223,35.073,52.576c0.151,0.161,0.305,0.322,0.457,0.483
	C348.444,446.853,339.322,453.515,328.316,458.887z M412.255,352.36c3.963,10.89,7.313,33.917,6.045,56.862
	c-1.242,22.491-6.851,38.225-14.64,41.059c-7.785,2.838-22.199-5.611-37.607-22.042c-15.719-16.763-27.956-36.557-31.919-47.445
	c-2.692-7.396-3.228-15.205-1.607-22.797c20.898-6.944,40.43-16.766,57.909-29.223C400.563,333.384,408.412,341.802,412.255,352.36z
	 M256,355.182c-106.996,0-194.043-72.641-194.043-161.929c0-32.527,11.385-63.569,33.004-90.303l12.086,15.37
	c-5.868,11.361-9.205,24.233-9.205,37.878c0,45.673,37.157,82.83,82.83,82.83c13.602,0,26.816-3.297,38.69-9.585
	c1.172,1.792,2.52,3.496,4.083,5.059l18.292,18.292c3.81,3.811,8.876,5.909,14.265,5.909c5.388,0,10.455-2.099,14.265-5.908
	l18.292-18.293c1.563-1.563,2.912-3.268,4.083-5.06c11.873,6.287,25.087,9.585,38.69,9.585c45.672,0,82.83-37.157,82.83-82.83
	c0-13.645-3.337-26.516-9.205-37.878l12.086-15.37c21.619,26.733,33.004,57.775,33.004,90.303
	C450.042,282.541,362.996,355.182,256,355.182z M157.678,171.179c4.142,0,7.5-3.357,7.5-7.5c0-8.541,6.949-15.491,15.492-15.491
	c8.542,0,15.492,6.949,15.492,15.491c0,4.143,3.358,7.5,7.5,7.5c4.142,0,7.5-3.357,7.5-7.5c0-16.814-13.679-30.492-30.493-30.492
	s-30.493,13.679-30.493,30.492C150.177,167.822,153.536,171.179,157.678,171.179z"/>
<g>
</g>
<g>
</g>
<g>
</g>
<g>
</g>
<g>
</g>
<g>
</g>
<g>
</g>
<g>
</g>
<g>
</g>
<g>
</g>
<g>
</g>
<g>
</g>
<g>
</g>
<g>
</g>
<g>
</g>
</svg>
