<svg height="512pt" viewBox="-55 0 512 512.001" width="512pt" xmlns="http://www.w3.org/2000/svg"><path d="m86.550781 464.191406c0-11.484375 1.023438-23.039062 3.046875-34.34375.675782-3.769531 4.183594-6.367187 7.984375-5.917968l69.523438 8.234374c22.742187 2.695313 45.808593 2.695313 68.554687 0l69.523438-8.234374c3.800781-.449219 7.304687 2.148437 7.980468 5.917968 2.023438 11.304688 3.050782 22.859375 3.050782 34.34375s-1.027344 23.039063-3.050782 34.339844c-.675781 3.769531-4.179687 6.367188-7.980468 5.917969l-69.523438-8.234375c-22.746094-2.691406-45.8125-2.691406-68.554687 0l-69.523438 8.234375c-3.800781.449219-7.308593-2.148438-7.984375-5.917969-2.023437-11.300781-3.046875-22.855469-3.046875-34.339844zm0 0" fill="#dfdfdd"/><path d="m319.730469 428.671875c0-7.25-5.890625-12.484375-13.089844-11.628906l-71.765625 8.5c-22.25 2.632812-44.734375 2.632812-66.984375 0l-71.769531-8.5c-7.199219-.855469-13.085938 4.378906-13.085938 11.628906-1.71875 9.585937-2.730468 19.265625-3.042968 28.964844-.183594 5.71875 4.0625 10.621093 9.761718 11.148437 35.65625 3.300782 86.523438 4.742188 111.628906 4.742188 25.105469 0 75.96875-1.441406 111.625-4.742188 5.699219-.527344 9.949219-5.429687 9.765626-11.148437-.3125-9.699219-1.324219-19.378907-3.042969-28.964844zm0 0" fill="#eeeeed"/><path d="m177.839844 427.472656v66.75c0 2.148438 1.816406 3.859375 3.960937 3.714844 13.035157-.886719 26.128907-.886719 39.164063 0 2.144531.144531 3.960937-1.566406 3.960937-3.714844v-66.75c0-2.152344-1.820312-3.863281-3.96875-3.710937-13.03125.902343-26.121093.902343-39.152343 0-2.144532-.152344-3.964844 1.558593-3.964844 3.710937zm0 0" fill="#eb8d9a"/><path d="m314.253906 369.894531c51.355469-18.886719 66.203125-50.242187 62.617188-78.640625-1.03125-8.15625-9.503906-13.15625-17.230469-10.34375l-69.257813 25.207032c-17.753906 6.464843-26.867187 26.160156-20.253906 43.898437 6.566406 17.605469 26.488282 26.363281 44.125 19.878906zm0 0" fill="#ddaf89"/><path d="m88.511719 369.894531c-51.355469-18.886719-66.203125-50.242187-62.617188-78.640625 1.03125-8.15625 9.503907-13.15625 17.230469-10.34375l69.257812 25.207032c17.753907 6.464843 26.867188 26.160156 20.253907 43.898437-6.566407 17.605469-26.488281 26.363281-44.125 19.878906zm0 0" fill="#ddaf89"/><path d="m45.53125 174.898438 5.023438 46.121093c.339843 3.109375-3.230469 5.097657-5.695313 3.167969-2.640625-2.058594-6.34375-2.050781-8.972656.019531-3.828125 3.019531-9.222657 3.019531-13.046875 0-2.628906-2.070312-6.335938-2.078125-8.972656-.019531-2.464844 1.929688-6.035157-.058594-5.695313-3.167969l5.023437-46.121093zm0 0" fill="#f6c273"/><path d="m11.03125 194.773438c5.089844 3.878906 11.4375 6.183593 18.332031 6.183593 6.890625 0 13.242188-2.304687 18.332031-6.183593l-2.167968-19.875h-32.332032zm0 0" fill="#e6b469"/><path d="m50.578125 170.679688c0 11.71875-9.5 21.214843-21.214844 21.214843-11.71875 0-21.214843-9.496093-21.214843-21.214843 0-11.714844 9.496093-21.210938 21.214843-21.210938 11.714844 0 21.214844 9.496094 21.214844 21.210938zm0 0" fill="#f8e47c"/><path d="m235.578125 41.695312c0 18.882813-15.3125 34.191407-34.195313 34.191407-18.886718 0-34.195312-15.308594-34.195312-34.191407 0-18.886718 15.308594-34.195312 34.195312-34.195312 18.882813 0 34.195313 15.308594 34.195313 34.195312zm0 0" fill="#f8e47c"/><path d="m376.914062 88.539062h-351.0625c-10.132812 0-18.351562-8.21875-18.351562-18.351562v-10.140625c0-10.136719 8.214844-18.355469 18.351562-18.355469h351.0625c10.132813 0 18.351563 8.21875 18.351563 18.355469v10.140625c0 10.132812-8.21875 18.351562-18.351563 18.351562zm0 0" fill="#495059"/><path d="m340.269531 88.539062v67.320313c0 10.324219-8.734375 18.492187-19.035156 17.792969-25.710937-1.742188-71.875-3.066406-102.832031 6.417968-11.078125 3.394532-22.960938 3.394532-34.035156 0-30.957032-9.484374-77.125-8.160156-102.835938-6.417968-10.300781.699218-19.035156-7.46875-19.035156-17.792969v-67.320313zm0 0" fill="#495059"/><path d="m62.496094 155.859375c0 10.324219 8.730468 18.492187 19.03125 17.792969 15.453125-1.042969 38.292968-1.9375 60.777344-.429688-5.53125-13.640625-7.753907-30.460937-8.644532-45.429687-.453125-7.652344 5.671875-14.09375 13.339844-14.09375h193.269531v-25.160157h-277.773437zm0 0" fill="#41464f"/><path d="m342.109375 231.835938c0-74.570313-63.007813-82.371094-140.726563-82.371094-77.722656 0-140.726562 7.800781-140.726562 82.371094 0 36.179687 14.835938 64.335937 38.988281 83.734374 3.714844 2.984376 5.230469 7.90625 3.757813 12.4375-2.378906 7.328126-3.652344 15.046876-3.652344 23.015626 0 47.699218 27.929688 77.695312 101.632812 77.695312 73.703126 0 101.636719-29.996094 101.636719-77.695312 0-7.96875-1.273437-15.6875-3.65625-23.011719-1.472656-4.53125.042969-9.457031 3.757813-12.441407 24.152344-19.398437 38.988281-47.554687 38.988281-83.734374zm0 0" fill="#ad9386"/><g fill="#998377"><path d="m131.621094 302.632812c-40.605469-28.667968-48.300782-110.054687-9.839844-146.539062-36.914062 8.957031-61.125 29.519531-61.125 75.742188 0 36.179687 14.835938 64.332031 38.988281 83.734374 3.714844 2.980469 5.230469 7.90625 3.757813 12.4375-2.378906 7.328126-3.652344 15.042969-3.652344 23.015626 0 47.699218 27.929688 77.691406 101.632812 77.691406 20.878907 0 38.082032-2.40625 52.019532-6.941406-80.675782 6.574218-124.402344-47.128907-114.085938-99.875 1.441406-7.378907-1.554687-14.925782-7.695312-19.265626zm0 0"/><path d="m201.382812 348.3125c-4.144531 0-7.5-3.359375-7.5-7.5v-12.261719c0-4.140625 3.355469-7.5 7.5-7.5 4.144532 0 7.5 3.359375 7.5 7.5v12.261719c0 4.140625-3.355468 7.5-7.5 7.5zm0 0"/><path d="m163.539062 359.890625c-4.144531 0-7.5-3.359375-7.5-7.5v-12.257813c0-4.144531 3.355469-7.5 7.5-7.5 4.140626 0 7.5 3.355469 7.5 7.5v12.257813c0 4.140625-3.359374 7.5-7.5 7.5zm0 0"/><path d="m239.226562 359.890625c-4.144531 0-7.5-3.359375-7.5-7.5v-12.257813c0-4.144531 3.355469-7.5 7.5-7.5 4.140626 0 7.5 3.355469 7.5 7.5v12.257813c0 4.140625-3.359374 7.5-7.5 7.5zm0 0"/></g><path d="m194.53125 212.578125c4.230469 2.398437 9.472656 2.398437 13.703125 0 25.644531-14.53125 56.921875-6.9375 90.40625-6.9375 29.53125 0 55.691406-24.785156 64.851563-52.632813 2.519531-7.664062-4.828126-14.984374-12.390626-12.171874-50.617187 18.824218-94.882812-22.386719-141.316406 3.265624-5.246094 2.894532-11.558594 2.894532-16.804687 0-46.433594-25.652343-90.699219 15.558594-141.316407-3.265624-7.5625-2.8125-14.914062 4.507812-12.390624 12.171874 9.160156 27.847657 35.320312 52.632813 64.847656 52.632813 33.488281 0 64.765625-7.59375 90.410156 6.9375zm0 0" fill="#ddaf89"/><path d="m149.882812 263.289062c0-13.242187-13.484374-23.980468-30.113281-23.980468-16.632812 0-30.113281 10.738281-30.113281 23.980468 0 13.246094 13.480469 23.980469 30.113281 23.980469 16.628907 0 30.113281-10.734375 30.113281-23.980469zm0 0" fill="#f8b8bd"/><path d="m313.109375 263.289062c0-13.242187-13.480469-23.980468-30.113281-23.980468-16.632813 0-30.113282 10.738281-30.113282 23.980468 0 13.246094 13.480469 23.980469 30.113282 23.980469 16.632812 0 30.113281-10.734375 30.113281-23.980469zm0 0" fill="#f8b8bd"/><path d="m189.695312 225.273438-6.5 2.792968c-8.984374 3.867188-12.0625 15.074219-6.304687 22.984375l11.683594 16.054688c6.328125 8.695312 19.292969 8.695312 25.621093 0l11.679688-16.054688c5.757812-7.910156 2.683594-19.117187-6.304688-22.984375l-6.496093-2.792968c-7.464844-3.210938-15.917969-3.210938-23.378907 0zm0 0" fill="#f6c273"/><path d="m201.382812 190.113281c-1.46875 0-2.9375-.429687-4.210937-1.292969-23.675781-16.054687-38.285156-13.3125-56.78125-9.84375-16.105469 3.023438-34.363281 6.445313-60.925781-1.164062-3.980469-1.144531-6.285156-5.296875-5.144532-9.277344 1.144532-3.980468 5.296876-6.28125 9.277344-5.144531 23.152344 6.636719 38.847656 3.691406 54.027344.84375 19.148438-3.59375 37.285156-6.996094 63.757812 9.4375 26.46875-16.433594 44.609376-13.03125 63.757813-9.4375 15.179687 2.847656 30.875 5.792969 54.027344-.84375 3.980469-1.136719 8.132812 1.160156 9.277343 5.144531 1.140626 3.980469-1.164062 8.136719-5.144531 9.277344-26.5625 7.613281-44.816406 4.1875-60.925781 1.164062-18.492188-3.46875-33.101562-6.210937-56.785156 9.84375-1.269532.863282-2.738282 1.292969-4.207032 1.292969zm0 0" fill="#c9a07d"/><path d="m158.597656 448.277344c-10.625 0-19.238281-8.613282-19.238281-19.238282v-16.921874c0-10.625 8.613281-19.238282 19.238281-19.238282 10.628906 0 19.242188 8.613282 19.242188 19.238282v16.921874c0 10.625-8.613282 19.238282-19.242188 19.238282zm0 0" fill="#f6c273"/><path d="m244.164062 448.277344c-10.625 0-19.238281-8.613282-19.238281-19.238282v-16.921874c0-10.625 8.613281-19.238282 19.238281-19.238282 10.628907 0 19.242188 8.613282 19.242188 19.238282v16.921874c0 10.625-8.613281 19.238282-19.242188 19.238282zm0 0" fill="#f6c273"/><path d="m265.445312 218.972656c-11.246093 0-20.394531 9.148438-20.394531 20.394532 0 4.144531 3.355469 7.5 7.5 7.5 4.140625 0 7.5-3.355469 7.5-7.5 0-2.976563 2.421875-5.394532 5.394531-5.394532 2.976563 0 5.398438 2.417969 5.398438 5.394532 0 4.144531 3.355469 7.5 7.5 7.5 4.140625 0 7.5-3.355469 7.5-7.5 0-11.246094-9.152344-20.394532-20.398438-20.394532zm-128.125 0c-11.25 0-20.398437 9.148438-20.398437 20.394532 0 4.144531 3.359375 7.5 7.5 7.5 4.144531 0 7.5-3.355469 7.5-7.5 0-2.976563 2.421875-5.394532 5.398437-5.394532 2.972657 0 5.394532 2.417969 5.394532 5.394532 0 4.144531 3.355468 7.5 7.5 7.5 4.144531 0 7.5-3.355469 7.5-7.5 0-11.246094-9.148438-20.394532-20.394532-20.394532zm239.59375-184.78125h-17.261718c-4.140625 0-7.5 3.359375-7.5 7.5 0 4.144532 3.359375 7.5 7.5 7.5h17.261718c5.984376 0 10.851563 4.871094 10.851563 10.851563v10.144531c0 5.980469-4.867187 10.851562-10.851563 10.851562h-351.0625c-5.980468 0-10.851562-4.867187-10.851562-10.851562v-10.140625c0-5.984375 4.867188-10.851563 10.851562-10.851563h297.925782c4.140625 0 7.5-3.359374 7.5-7.5 0-4.144531-3.359375-7.5-7.5-7.5h-81.390625c-3.542969-19.421874-20.574219-34.195312-41.003907-34.195312-20.429687 0-37.460937 14.773438-41.003906 34.191406h-134.527344c-14.253906 0-25.851562 11.597656-25.851562 25.851563v10.144531c0 12.898438 9.496094 23.617188 21.863281 25.542969v47.234375c-12.207031 3.308594-21.214843 14.476562-21.214843 27.714844 0 5.25 1.421874 10.171874 3.890624 14.410156l-3.824218 35.113281c-.480469 4.425781 1.71875 8.679687 5.605468 10.84375 3.832032 2.132813 8.527344 1.800781 12.019532-.835937 3.257812 2.515624 7.140625 3.773437 11.023437 3.773437 3.882813 0 7.765625-1.257813 11.019531-3.773437 3.492188 2.636718 8.191407 2.96875 12.023438.835937.261719-.148437.515625-.304687.761719-.472656-.003907.421875-.011719.835937-.011719 1.261719 0 17.511718 3.308594 33.730468 9.742188 48.289062l-17.207032-6.261719c-5.894531-2.144531-12.351562-1.5-17.707031 1.769531-5.285156 3.226563-8.757813 8.578126-9.527344 14.679688-.683593 5.398438-.75 10.796875-.199219 16.054688.40625 3.855468 3.660157 6.71875 7.449219 6.71875.261719 0 .527344-.011719.792969-.039063 4.121094-.433594 7.109375-4.125 6.675781-8.242187-.429687-4.113282-.375-8.355469.160157-12.609376.269531-2.125 1.65625-3.265624 2.460937-3.757812 1.445313-.878906 3.183594-1.050781 4.761719-.476562l34.082031 12.402343c5.6875 7.707031 12.464844 14.753907 20.308594 21.054688 1.304687 1.046875 1.824219 2.726562 1.320312 4.273437-2.667969 8.214844-4.019531 16.738282-4.019531 25.332032 0 4.296874.21875 8.433593.648438 12.414062-.601563-.175781-1.203126-.363281-1.800782-.582031-20.816406-7.65625-36.351562-17.789063-46.175781-30.113281-2.582031-3.238282-7.300781-3.769532-10.539063-1.191407-3.242187 2.582031-3.773437 7.300781-1.191406 10.542969 11.558594 14.5 29.300782 26.222656 52.730469 34.839844 3.273437 1.203125 6.640625 1.980468 10.066406 2.347656 3.824219 13.085938 10.585938 23.96875 20.238281 32.589844l-19.222656-2.277344c-5.554687-.65625-11.0625 1.023438-15.105468 4.621094-3.867188 3.433594-6.15625 8.398437-6.351563 13.722656-1.707031 9.699219-2.730469 19.605469-3.050781 29.457031-.191406 5.910157 2.453125 11.289063 6.71875 14.792969.367187 9.289062 1.375 18.578125 3 27.667969 1.273437 7.089843 7.464844 12.144531 14.507812 12.144531.574219 0 1.15625-.03125 1.738282-.101562l69.527343-8.234376c2.109375-.25 4.308594-.480468 6.558594-.691406 2.179687 1.746094 4.957031 2.644532 7.761719 2.449219 12.65625-.859375 25.492187-.859375 38.148437 0 .25.015625.5.023437.75.023437 2.542969 0 5.027344-.882812 7.011719-2.472656 2.25.210938 4.445312.441406 6.558594.691406l69.523437 8.234376c.585938.066406 1.167969.101562 1.742188.101562 7.039062 0 13.234375-5.054688 14.503906-12.144531 1.628906-9.089844 2.632813-18.378907 3.003906-27.667969 4.265625-3.507812 6.90625-8.882812 6.71875-14.792969-.320312-9.859375-1.347656-19.769531-3.054687-29.460937-.191406-5.320313-2.480469-10.285156-6.347656-13.722656-4.042969-3.59375-9.550782-5.277344-15.109376-4.617188l-19.222656 2.273438c9.65625-8.621094 16.414063-19.503907 20.238282-32.589844 3.425781-.363282 6.796874-1.140625 10.066406-2.34375 25.398437-9.339844 44.054687-22.285156 55.457031-38.476563 10.035156-14.253906 14.191406-30.898437 12.011719-48.144531-.769532-6.101562-4.242188-11.453125-9.527344-14.679688-5.359375-3.273437-11.8125-3.914062-17.707031-1.773437l-17.210938 6.265625c6.433594-14.5625 9.746094-30.777344 9.746094-48.292969 0-13.667969-2.074219-25.828125-6.15625-36.265625.039063-.03125.074219-.058594.109375-.089844 12.402344-10.550781 22.011719-24.800781 27.050781-40.128906 2.097657-6.363281.398438-13.203125-4.425781-17.847656-4.75-4.570312-11.53125-5.992188-17.699219-3.695312-.242187.089843-.480469.167968-.71875.253906v-38.019532h29.140625c14.257813 0 25.851563-11.597656 25.851563-25.851562v-10.140625c.003906-14.257813-11.59375-25.855469-25.847657-25.855469zm-175.53125-19.191406c12.113282 0 22.363282 8.113281 25.613282 19.191406h-51.226563c3.25-11.078125 13.496094-19.191406 25.613281-19.191406zm-131.386718 81.039062h262.773437v41.691407c-16.429687 2.230469-32.4375-1.0625-49.152343-4.503907-24.945313-5.136718-50.738282-10.449218-77.460938 4.308594-2.988281 1.652344-6.558594 1.652344-9.550781 0-26.71875-14.757812-52.515625-9.445312-77.457031-4.308594-16.714844 3.441407-32.722657 6.734376-49.152344 4.503907zm-33.132813 0h18.132813v38.023438c-.242188-.085938-.480469-.167969-.71875-.253906-6.050782-2.25-12.679688-.921875-17.414063 3.4375zm-7.5 60.925782c1.199219 0 2.371094.171875 3.515625.480468 2.300782 6.417969 5.398438 12.621094 9.160156 18.417969-.382812.949219-.867187 1.839844-1.441406 2.664063-.089844.113281-.171875.234375-.257812.351562-2.515625 3.375-6.53125 5.515625-10.976563 5.515625-7.5625 0-13.714843-6.152343-13.714843-13.714843s6.152343-13.714844 13.714843-13.714844zm1.875 61.355468c-1.105469.871094-2.652343.871094-3.753906 0-3.246094-2.5625-7.273437-3.578124-11.144531-3.046874l1.972656-18.09375c3.402344 1.425781 7.136719 2.214843 11.050781 2.214843 3.894531 0 7.632813-.78125 11.050781-2.210937l1.96875 18.089844c-3.867187-.527344-7.894531.488281-11.144531 3.046874zm25.09375-13.5-1.445312-13.273437c1.398437 1.359375 2.832031 2.675781 4.3125 3.933594.039062.03125.074219.058593.109375.085937-1.152344 2.949219-2.144532 6.035156-2.976563 9.253906zm114.007813 283.496094c-1.394532.144532-2.773438.292969-4.117188.449219l-69.28125 8.207031c-1.1875-6.660156-1.988281-13.4375-2.445312-20.242187 20.605468 1.730469 48.074218 3.117187 75.84375 3.832031zm0-22.757812c-29.835938-.777344-59.238282-2.328125-79.894532-4.242188-.191406-.015625-.371093-.054687-.550781-.105468-.066406-.019532-.136719-.046876-.203125-.066407-1.324218-.464843-2.25-1.769531-2.203125-3.265625.300781-9.328125 1.285157-18.710937 2.929688-27.886718.078125-.4375.117187-.878907.117187-1.320313 0-1.355469.457032-2.476563 1.324219-3.246094.867187-.773437 2.042969-1.09375 3.382813-.9375l36.617187 4.335938v.210937c0 14.746094 11.996094 26.742188 26.738281 26.742188 4.210938 0 8.195313-.980469 11.742188-2.722656zm0-36.519532c0 6.472657-5.269532 11.738282-11.742188 11.738282-6.46875 0-11.738281-5.265625-11.738281-11.738282v-16.921874c0-6.472657 5.269531-11.738282 11.738281-11.738282 6.472656 0 11.742188 5.265625 11.742188 11.738282zm47.085937 61.167969c-10.664062-.574219-21.421875-.574219-32.085937 0v-54.515625c5.15625.339844 10.507812.527344 16.042968.527344 5.53125 0 10.886719-.1875 16.042969-.527344zm88.398438 6.765625-69.285157-8.207031c-1.339843-.15625-2.71875-.304687-4.113281-.449219v-7.753906c27.769531-.714844 55.238281-2.101562 75.84375-3.832031-.453125 6.804687-1.261719 13.582031-2.445312 20.242187zm1.703125-72.484375c1.34375-.160156 2.511718.164063 3.378906.9375.867188.769531 1.324219 1.894531 1.324219 3.246094 0 .441406.039062.886719.117187 1.320313 1.644532 9.167968 2.628906 18.550781 2.929688 27.886718.046875 1.496094-.875 2.796875-2.199219 3.261719-.070313.023437-.136719.050781-.210937.070313-.175782.050781-.359376.089843-.546876.105468-20.660156 1.914063-50.0625 3.464844-79.894531 4.242188v-12.503906c3.546875 1.742187 7.53125 2.722656 11.738281 2.722656 14.746094 0 26.742188-11.996094 26.742188-26.738282v-.210937zm-75.101563 4.550781v-16.921874c0-6.472657 5.269531-11.738282 11.738281-11.738282 6.472657 0 11.742188 5.265625 11.742188 11.738282v16.921874c0 6.472657-5.269531 11.738282-11.742188 11.738282-6.472656 0-11.738281-5.265625-11.738281-11.738282zm59.804688-98.714843c2.183593 6.714843 3.285156 13.679687 3.285156 20.699219 0 25.195312-8.335937 43.167968-25.40625 54.613281-2.90625-11.621094-13.433594-20.257813-25.941406-20.257813-14.746094 0-26.742188 11.992188-26.742188 26.738282v8.546874c-5.121093.359376-10.480469.550782-16.042969.550782-5.558593 0-10.917968-.191406-16.042968-.550782v-8.550781c0-14.742187-11.996094-26.738281-26.738282-26.738281-12.511718 0-23.039062 8.636719-25.941406 20.261719-17.070312-11.445313-25.410156-29.417969-25.410156-54.613281 0-7.019532 1.105469-13.984376 3.285156-20.699219 2.449219-7.53125.015625-15.617188-6.191406-20.601563-23.671875-19.019531-36.1875-45.949218-36.1875-77.890625 0-10.273437 1.3125-19.4375 3.894531-27.371093 10.183594 5.703124 21.0625 8.679687 32.074219 8.679687 8.992188 0 17.761719-.53125 26.242188-1.042969 22.167968-1.339844 41.46875-2.5 57.917968 5.660156-.519531.195313-1.039062.398438-1.554687.621094l-6.496094 2.796875c-6.390625 2.746094-11.113281 8.171875-12.953125 14.882813-1.839844 6.707031-.546875 13.777344 3.546875 19.402344l11.683594 16.054687c4.441406 6.105469 11.320312 9.609375 18.871093 9.609375 7.554688 0 14.433594-3.503906 18.875-9.609375l11.683594-16.054687c4.09375-5.625 5.386719-12.695313 3.546875-19.40625-1.839843-6.707032-6.5625-12.132813-12.953125-14.878907l-6.496094-2.796875c-.515624-.222656-1.035156-.425781-1.554687-.621094 16.449219-8.160156 35.746094-7 57.917969-5.660156 8.480468.511719 17.25 1.039063 26.242187 1.039063 11.011719 0 21.890625-2.972657 32.070313-8.675781 2.585937 7.929687 3.898437 17.097656 3.898437 27.371093 0 31.9375-12.515625 58.871094-36.1875 77.886719-6.210937 4.992188-8.640625 13.078125-6.195312 20.605469zm-99.574219-98.164063c5.546875-2.382812 11.910156-2.382812 17.453125 0l6.496094 2.796875c2.175781.933594 3.785156 2.785157 4.410156 5.070313.628906 2.285156.191406 4.695312-1.207031 6.609375l-11.683594 16.054687c-1.585938 2.183594-4.042969 3.4375-6.742188 3.4375-2.699218 0-5.160156-1.253906-6.746093-3.4375l-11.683594-16.054687c-1.394531-1.914063-1.835937-4.324219-1.207031-6.609375.625-2.285156 2.234375-4.136719 4.414062-5.070313zm169.550781 55.800782c1.582031-.578126 3.320313-.402344 4.761719.476562.804688.492188 2.191406 1.632812 2.460938 3.757812 3.847656 30.453126-16.667969 55.546876-57.761719 70.660157-.59375.21875-1.199219.410156-1.800781.585937.429687-3.980468.648437-8.121094.648437-12.417968 0-8.597657-1.351563-17.121094-4.019531-25.332032-.503906-1.546875.015625-3.226562 1.320312-4.273437 7.84375-6.300781 14.621094-13.347657 20.308594-21.054688zm-8.492187-140.09375c.769531-.289063 1.46875-.136719 2.070312.441406.386719.371094.972656 1.167968.582032 2.355468-10.144532 30.839844-37.3125 47.476563-57.726563 47.476563-8.542969 0-17.078125-.515625-25.335937-1.011719-24.640626-1.492187-47.90625-2.898437-68.769532 8.925782-1.945312 1.101562-4.363281 1.101562-6.308594 0-13.972656-7.917969-29.019531-9.902344-44.839843-9.902344-7.800781 0-15.792969.484375-23.929688.976562-8.257812.5-16.792969 1.015625-25.335937 1.015625-15.273438 0-34.324219-9.316406-47.199219-26.917969-.34375-.695312-.789063-1.332031-1.328125-1.886718-3.75-5.488282-6.910156-11.714844-9.199219-18.675782-.390625-1.183593.195313-1.980468.582031-2.351562.601563-.578125 1.296876-.726562 2.070313-.445312 26.152344 9.730468 50.03125 4.808593 73.125.054687 23.300781-4.800781 45.308594-9.332031 67.179687 2.746094 7.53125 4.160156 16.527344 4.160156 24.054688 0 21.871094-12.082031 43.882812-7.546875 67.183594-2.746094 23.09375 4.753906 46.976562 9.671875 73.125-.054687zm0 0"/></svg>